<svg width="376" height="593" viewBox="0 0 376 593" fill="none" xmlns="http://www.w3.org/2000/svg">
<rect width="376" height="593" fill="white"/>
<circle cx="202" cy="112" r="100" fill="#00DEC3"/>
<path d="M170.64 106.36L159.664 112.984L170.64 119.576L168.88 122.168L156.592 114.52V111.416L168.976 103.768L170.64 106.36ZM178.788 117.688L177.252 123H173.444L180.484 100.92H185.092L192.132 123H188.196L186.66 117.688H178.788ZM185.892 114.808L182.724 103.8L179.556 114.808H185.892ZM203.479 105.656C207.575 105.656 209.623 108.611 209.623 114.52C209.623 117.187 209.058 119.341 207.927 120.984C206.796 122.605 205.186 123.416 203.095 123.416C201.324 123.416 199.895 122.797 198.807 121.56V129.496L195.223 129.912V106.104H198.327L198.551 108.28C199.191 107.427 199.927 106.776 200.759 106.328C201.612 105.88 202.519 105.656 203.479 105.656ZM202.487 108.408C201.74 108.408 201.058 108.632 200.439 109.08C199.82 109.528 199.276 110.115 198.807 110.84V118.744C199.639 120.003 200.748 120.632 202.135 120.632C203.372 120.632 204.3 120.141 204.919 119.16C205.538 118.179 205.847 116.643 205.847 114.552C205.847 112.397 205.57 110.84 205.015 109.88C204.46 108.899 203.618 108.408 202.487 108.408ZM222.667 105.656C226.763 105.656 228.811 108.611 228.811 114.52C228.811 117.187 228.245 119.341 227.115 120.984C225.984 122.605 224.373 123.416 222.283 123.416C220.512 123.416 219.083 122.797 217.995 121.56V129.496L214.411 129.912V106.104H217.515L217.739 108.28C218.379 107.427 219.115 106.776 219.947 106.328C220.8 105.88 221.707 105.656 222.667 105.656ZM221.675 108.408C220.928 108.408 220.245 108.632 219.627 109.08C219.008 109.528 218.464 110.115 217.995 110.84V118.744C218.827 120.003 219.936 120.632 221.323 120.632C222.56 120.632 223.488 120.141 224.107 119.16C224.725 118.179 225.035 116.643 225.035 114.552C225.035 112.397 224.757 110.84 224.203 109.88C223.648 108.899 222.805 108.408 221.675 108.408ZM247.39 111.416V114.52L235.102 122.168L233.342 119.608L244.286 112.984L233.342 106.424L235.006 103.768L247.39 111.416Z" fill="black"/>
<circle cx="290" cy="317" r="75" fill="#BAFC00"/>
<path d="M254.56 311.44L244.956 317.236L254.56 323.004L253.02 325.272L242.268 318.58V315.864L253.104 309.172L254.56 311.44ZM268.353 317.208H262.025V326H258.777V306.68H262.025V314.548H268.353V306.68H271.601V326H268.353V317.208ZM282.006 310.824C284.134 310.824 285.777 311.524 286.934 312.924C288.091 314.305 288.67 316.191 288.67 318.58C288.67 320.969 288.082 322.864 286.906 324.264C285.73 325.664 284.087 326.364 281.978 326.364C279.85 326.364 278.198 325.683 277.022 324.32C275.865 322.939 275.286 321.035 275.286 318.608C275.286 316.256 275.874 314.371 277.05 312.952C278.245 311.533 279.897 310.824 282.006 310.824ZM282.006 313.26C280.867 313.26 280.009 313.699 279.43 314.576C278.87 315.453 278.59 316.797 278.59 318.608C278.59 320.437 278.87 321.791 279.43 322.668C279.99 323.527 280.839 323.956 281.978 323.956C283.117 323.956 283.966 323.517 284.526 322.64C285.086 321.763 285.366 320.409 285.366 318.58C285.366 316.769 285.086 315.435 284.526 314.576C283.966 313.699 283.126 313.26 282.006 313.26ZM303.051 310.824C303.966 310.824 304.685 311.141 305.207 311.776C305.73 312.411 305.991 313.493 305.991 315.024V326H303.219V315.444C303.219 314.623 303.154 314.053 303.023 313.736C302.911 313.419 302.65 313.26 302.239 313.26C301.455 313.26 300.727 313.755 300.055 314.744V326H297.507V315.444C297.507 314.623 297.442 314.053 297.311 313.736C297.199 313.419 296.938 313.26 296.527 313.26C295.743 313.26 295.015 313.755 294.343 314.744V326H291.543V311.216H293.895L294.119 312.812C294.586 312.159 295.062 311.664 295.547 311.328C296.033 310.992 296.611 310.824 297.283 310.824C298.59 310.824 299.43 311.449 299.803 312.7C300.251 312.103 300.737 311.645 301.259 311.328C301.782 310.992 302.379 310.824 303.051 310.824ZM312.252 319.616C312.346 321.053 312.756 322.136 313.484 322.864C314.231 323.573 315.164 323.928 316.284 323.928C316.975 323.928 317.628 323.825 318.244 323.62C318.879 323.396 319.523 323.069 320.176 322.64L321.52 324.544C320.83 325.123 320.018 325.571 319.084 325.888C318.151 326.205 317.171 326.364 316.144 326.364C313.886 326.364 312.131 325.664 310.88 324.264C309.63 322.845 309.004 320.96 309.004 318.608C309.004 317.133 309.275 315.808 309.816 314.632C310.358 313.437 311.142 312.504 312.168 311.832C313.195 311.16 314.39 310.824 315.752 310.824C317.712 310.824 319.262 311.487 320.4 312.812C321.558 314.119 322.136 315.92 322.136 318.216C322.136 318.776 322.108 319.243 322.052 319.616H312.252ZM315.78 313.148C314.772 313.148 313.951 313.512 313.316 314.24C312.682 314.968 312.318 316.051 312.224 317.488H319.084C319.047 316.088 318.748 315.015 318.188 314.268C317.628 313.521 316.826 313.148 315.78 313.148ZM338.505 315.864V318.58L327.753 325.272L326.213 323.032L335.789 317.236L326.213 311.496L327.669 309.172L338.505 315.864Z" fill="black"/>
<circle cx="89" cy="506" r="75" fill="#BAFC00"/>
<path d="M35.56 500.44L25.956 506.236L35.56 512.004L34.02 514.272L23.268 507.58V504.864L34.104 498.172L35.56 500.44ZM53.1611 509.54C53.1611 510.697 52.8624 511.715 52.2651 512.592C51.6864 513.469 50.8371 514.151 49.7171 514.636C48.6157 515.121 47.2997 515.364 45.7691 515.364C42.7824 515.364 40.4117 514.505 38.6571 512.788L40.4491 510.8C41.9051 512.144 43.6784 512.816 45.7691 512.816C46.9264 512.816 47.8784 512.545 48.6251 512.004C49.3904 511.463 49.7731 510.697 49.7731 509.708C49.7731 509.129 49.6517 508.644 49.4091 508.252C49.1851 507.86 48.7931 507.515 48.2331 507.216C47.6731 506.899 46.8704 506.581 45.8251 506.264C43.6784 505.629 42.1011 504.873 41.0931 503.996C40.0851 503.119 39.5811 501.961 39.5811 500.524C39.5811 499.497 39.8611 498.592 40.4211 497.808C40.9997 497.005 41.7931 496.389 42.8011 495.96C43.8091 495.512 44.9477 495.288 46.2171 495.288C48.8117 495.288 50.9677 496.063 52.6851 497.612L50.9771 499.544C49.6517 498.405 48.1304 497.836 46.4131 497.836C45.3677 497.836 44.5184 498.051 43.8651 498.48C43.2304 498.909 42.9131 499.525 42.9131 500.328C42.9131 500.832 43.0437 501.261 43.3051 501.616C43.5851 501.971 44.0424 502.297 44.6771 502.596C45.3304 502.876 46.2451 503.193 47.4211 503.548C49.2877 504.108 50.7064 504.827 51.6771 505.704C52.6664 506.581 53.1611 507.86 53.1611 509.54ZM62.9781 492.964C63.5755 492.964 64.0608 493.16 64.4341 493.552C64.8261 493.925 65.0221 494.392 65.0221 494.952C65.0221 495.512 64.8261 495.979 64.4341 496.352C64.0608 496.725 63.5755 496.912 62.9781 496.912C62.3621 496.912 61.8675 496.725 61.4941 496.352C61.1208 495.979 60.9341 495.512 60.9341 494.952C60.9341 494.373 61.1208 493.897 61.4941 493.524C61.8861 493.151 62.3808 492.964 62.9781 492.964ZM65.1341 512.704H69.1661V515H57.6021V512.704H61.9981V502.512H57.7421V500.216H65.1341V512.704ZM87.1312 500.944C86.5899 501.131 85.9739 501.261 85.2832 501.336C84.6112 501.392 83.7992 501.42 82.8472 501.42C83.7432 501.831 84.4152 502.344 84.8632 502.96C85.3112 503.576 85.5352 504.323 85.5352 505.2C85.5352 506.171 85.2925 507.029 84.8072 507.776C84.3405 508.523 83.6685 509.111 82.7912 509.54C81.9139 509.969 80.8779 510.184 79.6832 510.184C78.8432 510.184 78.1712 510.1 77.6672 509.932C77.4619 510.081 77.3032 510.268 77.1912 510.492C77.0792 510.697 77.0232 510.921 77.0232 511.164C77.0232 511.911 77.6299 512.284 78.8432 512.284H81.4192C82.4645 512.284 83.3979 512.461 84.2192 512.816C85.0405 513.171 85.6752 513.665 86.1232 514.3C86.5899 514.916 86.8232 515.616 86.8232 516.4C86.8232 517.875 86.1885 519.013 84.9192 519.816C83.6499 520.637 81.8205 521.048 79.4312 521.048C77.7699 521.048 76.4539 520.871 75.4832 520.516C74.5312 520.18 73.8499 519.676 73.4392 519.004C73.0472 518.351 72.8512 517.501 72.8512 516.456H75.6512C75.6512 517.016 75.7539 517.455 75.9592 517.772C76.1832 518.108 76.5659 518.351 77.1072 518.5C77.6485 518.668 78.4325 518.752 79.4592 518.752C80.9525 518.752 82.0259 518.565 82.6792 518.192C83.3325 517.837 83.6592 517.305 83.6592 516.596C83.6592 515.999 83.3979 515.532 82.8752 515.196C82.3712 514.879 81.6805 514.72 80.8032 514.72H78.2552C76.9299 514.72 75.9219 514.449 75.2312 513.908C74.5592 513.367 74.2232 512.685 74.2232 511.864C74.2232 511.36 74.3632 510.875 74.6432 510.408C74.9232 509.941 75.3245 509.54 75.8472 509.204C74.9699 508.737 74.3259 508.177 73.9152 507.524C73.5232 506.852 73.3272 506.031 73.3272 505.06C73.3272 504.033 73.5885 503.128 74.1112 502.344C74.6339 501.541 75.3619 500.925 76.2952 500.496C77.2285 500.048 78.2925 499.824 79.4872 499.824C81.0925 499.843 82.3619 499.731 83.2952 499.488C84.2472 499.245 85.2552 498.863 86.3192 498.34L87.1312 500.944ZM79.5152 502.008C78.5259 502.008 77.7792 502.288 77.2752 502.848C76.7712 503.389 76.5192 504.127 76.5192 505.06C76.5192 506.012 76.7712 506.768 77.2752 507.328C77.7979 507.869 78.5539 508.14 79.5432 508.14C80.4765 508.14 81.1859 507.869 81.6712 507.328C82.1565 506.787 82.3992 506.012 82.3992 505.004C82.3992 503.007 81.4379 502.008 79.5152 502.008ZM90.6483 500.216H93.3643L93.5883 502.148C94.2043 501.401 94.9229 500.832 95.7443 500.44C96.5843 500.029 97.4616 499.824 98.3763 499.824C99.7389 499.824 100.766 500.207 101.456 500.972C102.147 501.737 102.492 502.82 102.492 504.22V515H99.3563V505.788C99.3563 504.873 99.3003 504.173 99.1883 503.688C99.0949 503.184 98.8989 502.82 98.6003 502.596C98.3016 502.353 97.8536 502.232 97.2563 502.232C96.5843 502.232 95.9403 502.437 95.3243 502.848C94.7269 503.259 94.2136 503.772 93.7843 504.388V515H90.6483V500.216ZM110.573 510.548C110.573 511.407 110.741 512.032 111.077 512.424C111.432 512.797 111.964 512.984 112.673 512.984C113.345 512.984 113.989 512.788 114.605 512.396C115.24 512.004 115.744 511.509 116.117 510.912V500.216H119.253V515H116.537L116.341 513.096C115.819 513.824 115.137 514.384 114.297 514.776C113.457 515.168 112.589 515.364 111.693 515.364C110.275 515.364 109.211 514.981 108.501 514.216C107.792 513.451 107.437 512.359 107.437 510.94V500.216H110.573V510.548ZM131.45 499.824C135.034 499.824 136.826 502.409 136.826 507.58C136.826 509.913 136.332 511.799 135.342 513.236C134.353 514.655 132.944 515.364 131.114 515.364C129.565 515.364 128.314 514.823 127.362 513.74V520.684L124.226 521.048V500.216H126.942L127.138 502.12C127.698 501.373 128.342 500.804 129.07 500.412C129.817 500.02 130.61 499.824 131.45 499.824ZM130.582 502.232C129.929 502.232 129.332 502.428 128.79 502.82C128.249 503.212 127.773 503.725 127.362 504.36V511.276C128.09 512.377 129.061 512.928 130.274 512.928C131.357 512.928 132.169 512.499 132.71 511.64C133.252 510.781 133.522 509.437 133.522 507.608C133.522 505.723 133.28 504.36 132.794 503.52C132.309 502.661 131.572 502.232 130.582 502.232ZM153.083 504.864V507.58L142.331 514.272L140.791 512.032L150.367 506.236L140.791 500.496L142.247 498.172L153.083 504.864Z" fill="black"/>
<circle cx="89" cy="317" r="50" fill="#FFB800"/>
<path d="M59.445 313.68L53.957 316.992L59.445 320.288L58.565 321.584L52.421 317.76V316.208L58.613 312.384L59.445 313.68ZM69.6948 316.416C69.6948 318.507 69.2094 319.963 68.2388 320.784C67.2681 321.595 66.0414 322 64.5588 322H61.8548V310.96H64.3828C65.9828 310.96 67.2681 311.349 68.2388 312.128C69.2094 312.896 69.6948 314.325 69.6948 316.416ZM67.7428 316.416C67.7428 314.837 67.4654 313.771 66.9108 313.216C66.3668 312.661 65.6414 312.384 64.7348 312.384H63.7108V320.592H64.7508C66.7454 320.592 67.7428 319.2 67.7428 316.416ZM75.1125 309.408C75.4538 309.408 75.7312 309.52 75.9445 309.744C76.1685 309.957 76.2805 310.224 76.2805 310.544C76.2805 310.864 76.1685 311.131 75.9445 311.344C75.7312 311.557 75.4538 311.664 75.1125 311.664C74.7605 311.664 74.4778 311.557 74.2645 311.344C74.0512 311.131 73.9445 310.864 73.9445 310.544C73.9445 310.213 74.0512 309.941 74.2645 309.728C74.4885 309.515 74.7712 309.408 75.1125 309.408ZM76.3445 320.688H78.6485V322H72.0405V320.688H74.5525V314.864H72.1205V313.552H76.3445V320.688ZM87.7943 319.936C87.7943 320.256 87.8423 320.496 87.9383 320.656C88.0343 320.805 88.1996 320.917 88.4343 320.992L88.0183 322.208C87.1329 322.101 86.5516 321.712 86.2743 321.04C85.9649 321.424 85.5756 321.717 85.1063 321.92C84.6476 322.112 84.1409 322.208 83.5863 322.208C82.7329 322.208 82.0556 321.968 81.5543 321.488C81.0529 321.008 80.8023 320.373 80.8023 319.584C80.8023 318.699 81.1489 318.016 81.8423 317.536C82.5463 317.056 83.5383 316.816 84.8183 316.816H86.0183V316.272C86.0183 315.739 85.8583 315.349 85.5383 315.104C85.2183 314.859 84.7543 314.736 84.1463 314.736C83.8476 314.736 83.5009 314.773 83.1063 314.848C82.7116 314.923 82.3116 315.029 81.9062 315.168L81.4583 313.904C82.4716 313.52 83.4583 313.328 84.4183 313.328C85.5383 313.328 86.3809 313.573 86.9463 314.064C87.5116 314.555 87.7943 315.253 87.7943 316.16V319.936ZM84.1143 320.896C84.4876 320.896 84.8449 320.8 85.1863 320.608C85.5383 320.416 85.8156 320.149 86.0183 319.808V317.936H85.0263C84.2156 317.936 83.6236 318.075 83.2503 318.352C82.8769 318.619 82.6903 319.008 82.6903 319.52C82.6903 319.968 82.8076 320.309 83.0423 320.544C83.2876 320.779 83.6449 320.896 84.1143 320.896ZM94.636 319.696C94.636 320.411 95.0627 320.768 95.916 320.768C96.3427 320.768 96.7907 320.672 97.26 320.48L97.708 321.728C97.1213 322.048 96.396 322.208 95.532 322.208C94.6893 322.208 94.028 321.973 93.548 321.504C93.0787 321.024 92.844 320.368 92.844 319.536V311.472H90.3V310.16H94.636V319.696ZM103.91 313.328C105.126 313.328 106.064 313.728 106.726 314.528C107.387 315.317 107.718 316.395 107.718 317.76C107.718 319.125 107.382 320.208 106.71 321.008C106.038 321.808 105.099 322.208 103.894 322.208C102.678 322.208 101.734 321.819 101.062 321.04C100.4 320.251 100.07 319.163 100.07 317.776C100.07 316.432 100.406 315.355 101.078 314.544C101.76 313.733 102.704 313.328 103.91 313.328ZM103.91 314.72C103.259 314.72 102.768 314.971 102.438 315.472C102.118 315.973 101.958 316.741 101.958 317.776C101.958 318.821 102.118 319.595 102.438 320.096C102.758 320.587 103.243 320.832 103.894 320.832C104.544 320.832 105.03 320.581 105.35 320.08C105.67 319.579 105.83 318.805 105.83 317.76C105.83 316.725 105.67 315.963 105.35 315.472C105.03 314.971 104.55 314.72 103.91 314.72ZM117.696 313.968C117.386 314.075 117.034 314.149 116.64 314.192C116.256 314.224 115.792 314.24 115.248 314.24C115.76 314.475 116.144 314.768 116.4 315.12C116.656 315.472 116.784 315.899 116.784 316.4C116.784 316.955 116.645 317.445 116.368 317.872C116.101 318.299 115.717 318.635 115.216 318.88C114.714 319.125 114.122 319.248 113.44 319.248C112.96 319.248 112.576 319.2 112.288 319.104C112.17 319.189 112.08 319.296 112.016 319.424C111.952 319.541 111.92 319.669 111.92 319.808C111.92 320.235 112.266 320.448 112.96 320.448H114.432C115.029 320.448 115.562 320.549 116.032 320.752C116.501 320.955 116.864 321.237 117.12 321.6C117.386 321.952 117.52 322.352 117.52 322.8C117.52 323.643 117.157 324.293 116.432 324.752C115.706 325.221 114.661 325.456 113.296 325.456C112.346 325.456 111.594 325.355 111.039 325.152C110.496 324.96 110.106 324.672 109.872 324.288C109.648 323.915 109.536 323.429 109.536 322.832H111.136C111.136 323.152 111.194 323.403 111.312 323.584C111.44 323.776 111.658 323.915 111.968 324C112.277 324.096 112.725 324.144 113.312 324.144C114.165 324.144 114.778 324.037 115.152 323.824C115.525 323.621 115.712 323.317 115.712 322.912C115.712 322.571 115.562 322.304 115.264 322.112C114.976 321.931 114.581 321.84 114.08 321.84H112.624C111.866 321.84 111.29 321.685 110.896 321.376C110.512 321.067 110.32 320.677 110.32 320.208C110.32 319.92 110.4 319.643 110.56 319.376C110.72 319.109 110.949 318.88 111.248 318.688C110.746 318.421 110.378 318.101 110.144 317.728C109.92 317.344 109.808 316.875 109.808 316.32C109.808 315.733 109.957 315.216 110.256 314.768C110.554 314.309 110.97 313.957 111.504 313.712C112.037 313.456 112.645 313.328 113.328 313.328C114.245 313.339 114.97 313.275 115.504 313.136C116.048 312.997 116.624 312.779 117.232 312.48L117.696 313.968ZM113.344 314.576C112.778 314.576 112.352 314.736 112.064 315.056C111.776 315.365 111.632 315.787 111.632 316.32C111.632 316.864 111.776 317.296 112.064 317.616C112.362 317.925 112.794 318.08 113.36 318.08C113.893 318.08 114.298 317.925 114.576 317.616C114.853 317.307 114.992 316.864 114.992 316.288C114.992 315.147 114.442 314.576 113.344 314.576ZM126.601 316.208V317.76L120.457 321.584L119.577 320.304L125.049 316.992L119.577 313.712L120.409 312.384L126.601 316.208Z" fill="black"/>
<path d="M140.174 214.48C129.353 221.078 121.234 231.544 112.053 240.019C107.407 244.307 103.116 245.984 100.144 251.927" stroke="black" stroke-linecap="round" stroke-linejoin="round"/>
<path d="M243.477 215.771C249.5 221.967 256.84 228.068 261.555 235.141" stroke="black" stroke-linecap="round" stroke-linejoin="round"/>
<path d="M88.5226 377.182C89.0142 380.685 88.5115 416.561 89.8139 417.212" stroke="black" stroke-linecap="round" stroke-linejoin="round"/>
</svg>
